<mxfile host="app.diagrams.net" modified="2024-01-08T17:21:10.283Z" agent="Mozilla/5.0 (Windows NT 10.0; Win64; x64) AppleWebKit/537.36 (KHTML, like Gecko) Chrome/120.0.0.0 Safari/537.36" etag="75mseESrshjXgmIInc-_" version="22.1.17" type="github">
  <diagram name="Sequence Diagram" id="2YBvvXClWsGukQMizWep">
    <mxGraphModel dx="2284" dy="772" grid="0" gridSize="10" guides="1" tooltips="1" connect="1" arrows="1" fold="1" page="1" pageScale="1" pageWidth="850" pageHeight="1100" math="0" shadow="0">
      <root>
        <mxCell id="0" />
        <mxCell id="1" parent="0" />
        <mxCell id="Vz6BkjTHFM_aH4ZLGt7y-66" value="" style="rounded=1;whiteSpace=wrap;html=1;absoluteArcSize=1;arcSize=14;strokeWidth=2;" parent="1" vertex="1">
          <mxGeometry x="-90" y="40" width="1140" height="730" as="geometry" />
        </mxCell>
        <mxCell id="Vz6BkjTHFM_aH4ZLGt7y-67" value="&lt;b&gt;Alarm System&lt;/b&gt;" style="strokeWidth=2;html=1;shape=mxgraph.flowchart.delay;whiteSpace=wrap;" parent="1" vertex="1">
          <mxGeometry x="-90" y="40" width="110" height="30" as="geometry" />
        </mxCell>
        <mxCell id="Vz6BkjTHFM_aH4ZLGt7y-69" value="&lt;b&gt;AlarmSystem&lt;/b&gt;" style="rounded=1;whiteSpace=wrap;html=1;fillColor=#dae8fc;strokeColor=#6c8ebf;" parent="1" vertex="1">
          <mxGeometry x="345" y="60" width="120" height="90" as="geometry" />
        </mxCell>
        <mxCell id="Vz6BkjTHFM_aH4ZLGt7y-71" value="Sensors" style="rounded=1;whiteSpace=wrap;html=1;fillColor=#dae8fc;strokeColor=#6c8ebf;" parent="1" vertex="1">
          <mxGeometry x="590" y="60" width="120" height="90" as="geometry" />
        </mxCell>
        <mxCell id="Vz6BkjTHFM_aH4ZLGt7y-77" value="&lt;i&gt;&lt;b&gt;[Alarm system &lt;br&gt;Active]&lt;/b&gt;&amp;nbsp; &amp;nbsp; &amp;nbsp; &amp;nbsp;&lt;/i&gt;" style="rounded=1;whiteSpace=wrap;html=1;absoluteArcSize=1;arcSize=14;strokeWidth=2;labelPosition=left;verticalLabelPosition=top;align=right;verticalAlign=bottom;" parent="1" vertex="1">
          <mxGeometry x="10" y="270" width="990" height="460" as="geometry" />
        </mxCell>
        <mxCell id="Vz6BkjTHFM_aH4ZLGt7y-83" value="&lt;b&gt;&lt;i&gt;[Intrusion]&lt;/i&gt;&lt;/b&gt;" style="rounded=1;whiteSpace=wrap;html=1;absoluteArcSize=1;arcSize=14;strokeWidth=2;labelPosition=left;verticalLabelPosition=top;align=right;verticalAlign=bottom;" parent="1" vertex="1">
          <mxGeometry x="80" y="560" width="450" height="145" as="geometry" />
        </mxCell>
        <mxCell id="Vz6BkjTHFM_aH4ZLGt7y-74" value="" style="endArrow=none;dashed=1;html=1;rounded=0;exitX=0.504;exitY=0.686;exitDx=0;exitDy=0;exitPerimeter=0;fontSize=9;" parent="1" source="Vz6BkjTHFM_aH4ZLGt7y-76" edge="1">
          <mxGeometry width="50" height="50" relative="1" as="geometry">
            <mxPoint x="251.83333333333348" y="539.7300000000002" as="sourcePoint" />
            <mxPoint x="230" y="770" as="targetPoint" />
          </mxGeometry>
        </mxCell>
        <mxCell id="Vz6BkjTHFM_aH4ZLGt7y-76" value="&lt;font style=&quot;font-size: 14px;&quot;&gt;Actor&lt;/font&gt;" style="shape=umlActor;verticalLabelPosition=bottom;verticalAlign=top;html=1;outlineConnect=0;fontStyle=1" parent="1" vertex="1">
          <mxGeometry x="200" y="50" width="60" height="110" as="geometry" />
        </mxCell>
        <mxCell id="Vz6BkjTHFM_aH4ZLGt7y-80" value="&lt;b&gt;Loop&lt;/b&gt;" style="strokeWidth=2;html=1;shape=mxgraph.flowchart.delay;whiteSpace=wrap;" parent="1" vertex="1">
          <mxGeometry x="10" y="270" width="100" height="30" as="geometry" />
        </mxCell>
        <mxCell id="Vz6BkjTHFM_aH4ZLGt7y-84" value="&lt;b&gt;Alt&lt;/b&gt;" style="strokeWidth=2;html=1;shape=mxgraph.flowchart.delay;whiteSpace=wrap;" parent="1" vertex="1">
          <mxGeometry x="80" y="560" width="100" height="30" as="geometry" />
        </mxCell>
        <mxCell id="Vz6BkjTHFM_aH4ZLGt7y-90" value="" style="html=1;points=[[0,0,0,0,5],[0,1,0,0,-5],[1,0,0,0,5],[1,1,0,0,-5]];perimeter=orthogonalPerimeter;outlineConnect=0;targetShapes=umlLifeline;portConstraint=eastwest;newEdgeStyle={&quot;curved&quot;:0,&quot;rounded&quot;:0};direction=west;flipV=1;fillColor=#f5f5f5;strokeColor=#666666;gradientColor=#b3b3b3;" parent="1" vertex="1">
          <mxGeometry x="390" y="200" width="30" height="570" as="geometry" />
        </mxCell>
        <mxCell id="Vz6BkjTHFM_aH4ZLGt7y-91" value="Enter Valid Pin" style="html=1;verticalAlign=bottom;endArrow=block;curved=0;rounded=0;entryX=1;entryY=0;entryDx=0;entryDy=5;entryPerimeter=0;" parent="1" target="Vz6BkjTHFM_aH4ZLGt7y-90" edge="1">
          <mxGeometry relative="1" as="geometry">
            <mxPoint x="230" y="205" as="sourcePoint" />
          </mxGeometry>
        </mxCell>
        <mxCell id="Vz6BkjTHFM_aH4ZLGt7y-92" value="AlarmSystem Active" style="html=1;verticalAlign=bottom;endArrow=open;dashed=1;endSize=8;curved=0;rounded=0;exitX=1;exitY=0.105;exitDx=0;exitDy=0;exitPerimeter=0;" parent="1" source="Vz6BkjTHFM_aH4ZLGt7y-90" edge="1">
          <mxGeometry relative="1" as="geometry">
            <mxPoint x="230" y="260" as="targetPoint" />
          </mxGeometry>
        </mxCell>
        <mxCell id="Vz6BkjTHFM_aH4ZLGt7y-93" value="AlarmSystem Alarmed&lt;br&gt;Wait 10 sec or Enter Pin" style="html=1;verticalAlign=bottom;endArrow=open;dashed=1;endSize=8;curved=0;rounded=0;" parent="1" edge="1">
          <mxGeometry relative="1" as="geometry">
            <mxPoint x="230" y="590" as="targetPoint" />
            <mxPoint x="390" y="590" as="sourcePoint" />
          </mxGeometry>
        </mxCell>
        <mxCell id="Vz6BkjTHFM_aH4ZLGt7y-98" value="10s" style="html=1;points=[[0,0,0,0,5],[0,1,0,0,-5],[1,0,0,0,5],[1,1,0,0,-5]];perimeter=orthogonalPerimeter;outlineConnect=0;targetShapes=umlLifeline;portConstraint=eastwest;newEdgeStyle={&quot;curved&quot;:0,&quot;rounded&quot;:0};" parent="1" vertex="1">
          <mxGeometry x="450" y="630" width="30" height="60" as="geometry" />
        </mxCell>
        <mxCell id="Vz6BkjTHFM_aH4ZLGt7y-99" value="Enter Pin / Wait" style="html=1;verticalAlign=bottom;endArrow=block;curved=0;rounded=0;entryX=0;entryY=0.091;entryDx=0;entryDy=0;entryPerimeter=0;" parent="1" target="Vz6BkjTHFM_aH4ZLGt7y-98" edge="1">
          <mxGeometry relative="1" as="geometry">
            <mxPoint x="230" y="635" as="sourcePoint" />
          </mxGeometry>
        </mxCell>
        <mxCell id="Vz6BkjTHFM_aH4ZLGt7y-100" value="AlarmSystem Active" style="html=1;verticalAlign=bottom;endArrow=open;dashed=1;endSize=8;curved=0;rounded=0;exitX=0;exitY=1;exitDx=0;exitDy=-5;exitPerimeter=0;" parent="1" source="Vz6BkjTHFM_aH4ZLGt7y-98" edge="1">
          <mxGeometry relative="1" as="geometry">
            <mxPoint x="230" y="685" as="targetPoint" />
          </mxGeometry>
        </mxCell>
        <mxCell id="Vz6BkjTHFM_aH4ZLGt7y-118" value="" style="html=1;verticalAlign=bottom;endArrow=block;curved=0;rounded=0;" parent="1" edge="1">
          <mxGeometry relative="1" as="geometry">
            <mxPoint x="667.5" y="416" as="sourcePoint" />
            <mxPoint x="872.5" y="416" as="targetPoint" />
          </mxGeometry>
        </mxCell>
        <mxCell id="Vz6BkjTHFM_aH4ZLGt7y-102" value="60ms" style="html=1;points=[[0,0,0,0,5],[0,1,0,0,-5],[1,0,0,0,5],[1,1,0,0,-5]];perimeter=orthogonalPerimeter;outlineConnect=0;targetShapes=umlLifeline;portConstraint=eastwest;newEdgeStyle={&quot;curved&quot;:0,&quot;rounded&quot;:0};fillColor=#bac8d3;strokeColor=#23445d;" parent="1" vertex="1">
          <mxGeometry x="632.5" y="293" width="35" height="60" as="geometry" />
        </mxCell>
        <mxCell id="Vz6BkjTHFM_aH4ZLGt7y-104" value="60ms" style="html=1;points=[[0,0,0,0,5],[0,1,0,0,-5],[1,0,0,0,5],[1,1,0,0,-5]];perimeter=orthogonalPerimeter;outlineConnect=0;targetShapes=umlLifeline;portConstraint=eastwest;newEdgeStyle={&quot;curved&quot;:0,&quot;rounded&quot;:0};fillColor=#bac8d3;strokeColor=#23445d;" parent="1" vertex="1">
          <mxGeometry x="632.5" y="353" width="35" height="60" as="geometry" />
        </mxCell>
        <mxCell id="Vz6BkjTHFM_aH4ZLGt7y-106" value="120ms" style="html=1;points=[[0,0,0,0,5],[0,1,0,0,-5],[1,0,0,0,5],[1,1,0,0,-5]];perimeter=orthogonalPerimeter;outlineConnect=0;targetShapes=umlLifeline;portConstraint=eastwest;newEdgeStyle={&quot;curved&quot;:0,&quot;rounded&quot;:0};fillColor=#bac8d3;strokeColor=#23445d;" parent="1" vertex="1">
          <mxGeometry x="872.5" y="293" width="35" height="120" as="geometry" />
        </mxCell>
        <mxCell id="Vz6BkjTHFM_aH4ZLGt7y-108" value="Camera" style="rounded=1;whiteSpace=wrap;html=1;fillColor=#dae8fc;strokeColor=#6c8ebf;" parent="1" vertex="1">
          <mxGeometry x="830" y="60" width="120" height="90" as="geometry" />
        </mxCell>
        <mxCell id="Vz6BkjTHFM_aH4ZLGt7y-109" value="Collecting Data" style="html=1;verticalAlign=bottom;endArrow=block;curved=0;rounded=0;entryX=0;entryY=0;entryDx=0;entryDy=5;entryPerimeter=0;" parent="1" edge="1">
          <mxGeometry relative="1" as="geometry">
            <mxPoint x="420" y="293" as="sourcePoint" />
            <mxPoint x="632.5" y="293.48" as="targetPoint" />
          </mxGeometry>
        </mxCell>
        <mxCell id="Vz6BkjTHFM_aH4ZLGt7y-110" value="Collecting Data" style="html=1;verticalAlign=bottom;endArrow=block;curved=0;rounded=0;entryX=0;entryY=0;entryDx=0;entryDy=5;entryPerimeter=0;" parent="1" edge="1">
          <mxGeometry relative="1" as="geometry">
            <mxPoint x="635" y="293" as="sourcePoint" />
            <mxPoint x="875" y="293.48" as="targetPoint" />
          </mxGeometry>
        </mxCell>
        <mxCell id="Vz6BkjTHFM_aH4ZLGt7y-111" value="Return" style="html=1;verticalAlign=bottom;endArrow=open;dashed=1;endSize=8;curved=0;rounded=0;exitX=1;exitY=0.105;exitDx=0;exitDy=0;exitPerimeter=0;" parent="1" edge="1">
          <mxGeometry relative="1" as="geometry">
            <mxPoint x="420" y="352" as="targetPoint" />
            <mxPoint x="632.5" y="352" as="sourcePoint" />
          </mxGeometry>
        </mxCell>
        <mxCell id="Vz6BkjTHFM_aH4ZLGt7y-112" value="" style="html=1;verticalAlign=bottom;endArrow=open;dashed=1;endSize=8;curved=0;rounded=0;exitX=1;exitY=0.105;exitDx=0;exitDy=0;exitPerimeter=0;" parent="1" edge="1">
          <mxGeometry relative="1" as="geometry">
            <mxPoint x="420" y="413" as="targetPoint" />
            <mxPoint x="872.5" y="413" as="sourcePoint" />
          </mxGeometry>
        </mxCell>
        <mxCell id="Vz6BkjTHFM_aH4ZLGt7y-113" value="Return" style="text;html=1;strokeColor=none;fillColor=none;align=center;verticalAlign=middle;whiteSpace=wrap;rounded=0;" parent="1" vertex="1">
          <mxGeometry x="740" y="400" width="60" height="10" as="geometry" />
        </mxCell>
        <mxCell id="Vz6BkjTHFM_aH4ZLGt7y-115" value="Collecting Data" style="html=1;verticalAlign=bottom;endArrow=block;curved=0;rounded=0;entryX=0;entryY=0;entryDx=0;entryDy=5;entryPerimeter=0;" parent="1" edge="1">
          <mxGeometry relative="1" as="geometry">
            <mxPoint x="425" y="353" as="sourcePoint" />
            <mxPoint x="638" y="353.48" as="targetPoint" />
          </mxGeometry>
        </mxCell>
        <mxCell id="Vz6BkjTHFM_aH4ZLGt7y-117" value="Return" style="html=1;verticalAlign=bottom;endArrow=open;dashed=1;endSize=8;curved=0;rounded=0;exitX=1;exitY=0.105;exitDx=0;exitDy=0;exitPerimeter=0;" parent="1" edge="1">
          <mxGeometry relative="1" as="geometry">
            <mxPoint x="418.75" y="412" as="targetPoint" />
            <mxPoint x="631.25" y="412" as="sourcePoint" />
          </mxGeometry>
        </mxCell>
        <mxCell id="Vz6BkjTHFM_aH4ZLGt7y-119" value="" style="html=1;verticalAlign=bottom;endArrow=open;dashed=1;endSize=8;curved=0;rounded=0;exitX=0;exitY=1;exitDx=0;exitDy=-5;exitPerimeter=0;" parent="1" edge="1">
          <mxGeometry relative="1" as="geometry">
            <mxPoint x="420" y="533" as="targetPoint" />
            <mxPoint x="872.5" y="533" as="sourcePoint" />
          </mxGeometry>
        </mxCell>
        <mxCell id="Vz6BkjTHFM_aH4ZLGt7y-120" value="Return" style="text;html=1;strokeColor=none;fillColor=none;align=center;verticalAlign=middle;whiteSpace=wrap;rounded=0;" parent="1" vertex="1">
          <mxGeometry x="740" y="516" width="60" height="10" as="geometry" />
        </mxCell>
        <mxCell id="Vz6BkjTHFM_aH4ZLGt7y-121" value="Collecting Data" style="text;html=1;strokeColor=none;fillColor=none;align=center;verticalAlign=middle;whiteSpace=wrap;rounded=0;" parent="1" vertex="1">
          <mxGeometry x="480" y="423" width="90" height="10" as="geometry" />
        </mxCell>
        <mxCell id="Vz6BkjTHFM_aH4ZLGt7y-124" value="" style="endArrow=none;dashed=1;html=1;rounded=0;" parent="1" edge="1">
          <mxGeometry width="50" height="50" relative="1" as="geometry">
            <mxPoint x="650" y="290" as="sourcePoint" />
            <mxPoint x="650" y="150" as="targetPoint" />
          </mxGeometry>
        </mxCell>
        <mxCell id="Vz6BkjTHFM_aH4ZLGt7y-125" value="" style="endArrow=none;dashed=1;html=1;rounded=0;" parent="1" edge="1">
          <mxGeometry width="50" height="50" relative="1" as="geometry">
            <mxPoint x="889.52" y="290" as="sourcePoint" />
            <mxPoint x="889.52" y="150" as="targetPoint" />
          </mxGeometry>
        </mxCell>
        <mxCell id="Vz6BkjTHFM_aH4ZLGt7y-126" value="" style="endArrow=none;dashed=1;html=1;rounded=0;exitX=0.648;exitY=1;exitDx=0;exitDy=0;exitPerimeter=0;" parent="1" source="Vz6BkjTHFM_aH4ZLGt7y-66" edge="1">
          <mxGeometry width="50" height="50" relative="1" as="geometry">
            <mxPoint x="649.52" y="660" as="sourcePoint" />
            <mxPoint x="649.52" y="520" as="targetPoint" />
          </mxGeometry>
        </mxCell>
        <mxCell id="Vz6BkjTHFM_aH4ZLGt7y-127" value="" style="endArrow=none;dashed=1;html=1;rounded=0;exitX=0.86;exitY=1.003;exitDx=0;exitDy=0;exitPerimeter=0;" parent="1" edge="1" source="Vz6BkjTHFM_aH4ZLGt7y-66">
          <mxGeometry width="50" height="50" relative="1" as="geometry">
            <mxPoint x="889.98" y="603" as="sourcePoint" />
            <mxPoint x="889.5" y="533" as="targetPoint" />
          </mxGeometry>
        </mxCell>
        <mxCell id="Vz6BkjTHFM_aH4ZLGt7y-128" value="" style="endArrow=none;dashed=1;html=1;rounded=0;" parent="1" edge="1">
          <mxGeometry width="50" height="50" relative="1" as="geometry">
            <mxPoint x="405" y="200" as="sourcePoint" />
            <mxPoint x="404.52" y="150" as="targetPoint" />
          </mxGeometry>
        </mxCell>
        <mxCell id="-BaSCNxQy_Tum4sf2AIZ-2" value="120ms" style="html=1;points=[[0,0,0,0,5],[0,1,0,0,-5],[1,0,0,0,5],[1,1,0,0,-5]];perimeter=orthogonalPerimeter;outlineConnect=0;targetShapes=umlLifeline;portConstraint=eastwest;newEdgeStyle={&quot;curved&quot;:0,&quot;rounded&quot;:0};fillColor=#bac8d3;strokeColor=#23445d;" vertex="1" parent="1">
          <mxGeometry x="872.5" y="413" width="35" height="120" as="geometry" />
        </mxCell>
        <mxCell id="-BaSCNxQy_Tum4sf2AIZ-4" value="60ms" style="html=1;points=[[0,0,0,0,5],[0,1,0,0,-5],[1,0,0,0,5],[1,1,0,0,-5]];perimeter=orthogonalPerimeter;outlineConnect=0;targetShapes=umlLifeline;portConstraint=eastwest;newEdgeStyle={&quot;curved&quot;:0,&quot;rounded&quot;:0};fillColor=#bac8d3;strokeColor=#23445d;" vertex="1" parent="1">
          <mxGeometry x="632.5" y="410" width="35" height="60" as="geometry" />
        </mxCell>
        <mxCell id="-BaSCNxQy_Tum4sf2AIZ-5" value="" style="html=1;verticalAlign=bottom;endArrow=block;curved=0;rounded=0;" edge="1" parent="1">
          <mxGeometry relative="1" as="geometry">
            <mxPoint x="420" y="416" as="sourcePoint" />
            <mxPoint x="633" y="416" as="targetPoint" />
            <Array as="points">
              <mxPoint x="594.5" y="416" />
            </Array>
          </mxGeometry>
        </mxCell>
        <mxCell id="-BaSCNxQy_Tum4sf2AIZ-3" value="60ms" style="html=1;points=[[0,0,0,0,5],[0,1,0,0,-5],[1,0,0,0,5],[1,1,0,0,-5]];perimeter=orthogonalPerimeter;outlineConnect=0;targetShapes=umlLifeline;portConstraint=eastwest;newEdgeStyle={&quot;curved&quot;:0,&quot;rounded&quot;:0};fillColor=#bac8d3;strokeColor=#23445d;" vertex="1" parent="1">
          <mxGeometry x="632.5" y="470" width="35" height="63" as="geometry" />
        </mxCell>
        <mxCell id="-BaSCNxQy_Tum4sf2AIZ-6" value="Collecting Data" style="text;html=1;strokeColor=none;fillColor=none;align=center;verticalAlign=middle;whiteSpace=wrap;rounded=0;" vertex="1" parent="1">
          <mxGeometry x="725" y="423" width="90" height="10" as="geometry" />
        </mxCell>
        <mxCell id="-BaSCNxQy_Tum4sf2AIZ-7" value="Return" style="html=1;verticalAlign=bottom;endArrow=open;dashed=1;endSize=8;curved=0;rounded=0;exitX=1;exitY=0.105;exitDx=0;exitDy=0;exitPerimeter=0;" edge="1" parent="1">
          <mxGeometry relative="1" as="geometry">
            <mxPoint x="418.75" y="532" as="targetPoint" />
            <mxPoint x="631.25" y="532" as="sourcePoint" />
          </mxGeometry>
        </mxCell>
      </root>
    </mxGraphModel>
  </diagram>
</mxfile>
